ffmpeg started on 2025-06-12 at 17:56:24
Report written to "D:\Convert\FFMetrics\reports\ssim_report-6.txt"
Log level: 32
Command line:
ffmpeg -hide_banner -nostdin -i "G:\\\xc0\xed\xe8\xec\xe5\\[\xd2\xee\xef]\\Fate\\\xd1\xf2\xf0\xe0\xed\xed\xe0\xff \xef\xee\xe4\xe4\xe5\xeb\xea\xe0\\[DC] Fate Strange Fake - 01_Telegram_HEVC.mkv" -i "G:\\\xc0\xed\xe8\xec\xe5\\[\xd2\xee\xef]\\Fate\\\xd1\xf2\xf0\xe0\xed\xed\xe0\xff \xef\xee\xe4\xe4\xe5\xeb\xea\xe0\\[DC] Fate Strange Fake - 01_Telegram.mp4" -lavfi "[0:v]settb=AVTB,setpts=PTS-STARTPTS,format=pix_fmts=yuv420p10,fps=24000/1001,scale=1920:1080:flags=bicubic[main];[1:v]settb=AVTB,setpts=PTS-STARTPTS,format=pix_fmts=yuv420p,fps=24000/1001,scale=1920:1080:flags=bicubic[ref];[main][ref]ssim=eof_action=endall:stats_file='D\\:/Convert/FFMetrics/logs/ssim_logfile-6.txt'" -f null -
Input #0, matroska,webm, from 'G:\Аниме\[Топ]\Fate\Странная подделка\[DC] Fate Strange Fake - 01_Telegram_HEVC.mkv':
  Metadata:
    COMPATIBLE_BRANDS: isomiso2avc1mp41
    MAJOR_BRAND     : isom
    MINOR_VERSION   : 512
    ENCODER         : Lavf61.7.100
  Duration: 00:24:54.66, start: -0.021000, bitrate: 1097 kb/s
  Stream #0:0: Video: hevc (Main 10), yuv420p10le(tv, bt709, progressive), 1920x1080 [SAR 1:1 DAR 16:9], 23.98 fps, 23.98 tbr, 1k tbn (default)
      Metadata:
        HANDLER_NAME    : VideoHandler
        VENDOR_ID       : [0][0][0][0]
        ENCODER         : Lavc61.19.100 libx265
        BPS             : 899611
        DURATION        : 00:24:54.492708333
        NUMBER_OF_FRAMES: 35832
        NUMBER_OF_BYTES : 168057760
        _STATISTICS_WRITING_APP: mkvpropedit v66.0.0 ('Josie') 64-bit
        _STATISTICS_WRITING_DATE_UTC: 2025-06-12 13:55:44
        _STATISTICS_TAGS: BPS DURATION NUMBER_OF_FRAMES NUMBER_OF_BYTES
  Stream #0:1: Audio: aac (LC), 48000 Hz, stereo, fltp (default)
      Metadata:
        HANDLER_NAME    : SoundHandler
        VENDOR_ID       : [0][0][0][0]
        ENCODER         : Lavc61.19.100 aac
        BPS             : 193547
        DURATION        : 00:24:54.656000000
        NUMBER_OF_FRAMES: 70063
        NUMBER_OF_BYTES : 36160845
        _STATISTICS_WRITING_APP: mkvpropedit v66.0.0 ('Josie') 64-bit
        _STATISTICS_WRITING_DATE_UTC: 2025-06-12 13:55:44
        _STATISTICS_TAGS: BPS DURATION NUMBER_OF_FRAMES NUMBER_OF_BYTES
Input #1, mov,mp4,m4a,3gp,3g2,mj2, from 'G:\Аниме\[Топ]\Fate\Странная подделка\[DC] Fate Strange Fake - 01_Telegram.mp4':
  Metadata:
    major_brand     : isom
    minor_version   : 512
    compatible_brands: isomiso2avc1mp41
    encoder         : Lavf61.1.100
  Duration: 00:24:54.62, start: 0.000000, bitrate: 3726 kb/s
  Stream #1:0[0x1](und): Video: h264 (High) (avc1 / 0x31637661), yuv420p(tv, bt709, progressive), 1920x1080 [SAR 1:1 DAR 16:9], 3579 kb/s, 23.98 fps, 23.98 tbr, 24k tbn (default)
      Metadata:
        handler_name    : VideoHandler
        vendor_id       : [0][0][0][0]
        encoder         : Lavc61.3.100 h264_qsv
  Stream #1:1[0x2](und): Audio: aac (HE-AACv2) (mp4a / 0x6134706D), 48000 Hz, stereo, fltp, 144 kb/s (default)
      Metadata:
        handler_name    : SoundHandler
        vendor_id       : [0][0][0][0]
Stream mapping:
  Stream #0:0 (hevc) -> settb:default
  Stream #1:0 (h264) -> settb:default
  ssim:default -> Stream #0:0 (wrapped_avframe)
  Stream #0:1 -> #0:1 (aac (native) -> pcm_s16le (native))
Output #0, null, to 'pipe:':
  Metadata:
    COMPATIBLE_BRANDS: isomiso2avc1mp41
    MAJOR_BRAND     : isom
    MINOR_VERSION   : 512
    encoder         : Lavf61.7.100
  Stream #0:0: Video: wrapped_avframe, yuv420p10le(tv, bt709, progressive), 1920x1080 [SAR 1:1 DAR 16:9], q=2-31, 200 kb/s, 23.98 fps, 23.98 tbn
      Metadata:
        encoder         : Lavc61.19.100 wrapped_avframe
  Stream #0:1: Audio: pcm_s16le, 48000 Hz, stereo, s16, 1536 kb/s (default)
      Metadata:
        HANDLER_NAME    : SoundHandler
        VENDOR_ID       : [0][0][0][0]
        _STATISTICS_TAGS: BPS DURATION NUMBER_OF_FRAMES NUMBER_OF_BYTES
        BPS             : 193547
        DURATION        : 00:24:54.656000000
        NUMBER_OF_FRAMES: 70063
        NUMBER_OF_BYTES : 36160845
        _STATISTICS_WRITING_APP: mkvpropedit v66.0.0 ('Josie') 64-bit
        _STATISTICS_WRITING_DATE_UTC: 2025-06-12 13:55:44
        encoder         : Lavc61.19.100 pcm_s16le
frame=  176 fps=0.0 q=-0.0 size=N/A time=00:00:07.34 bitrate=N/A speed=14.2x    frame=  443 fps=425 q=-0.0 size=N/A time=00:00:18.47 bitrate=N/A speed=17.7x    frame=  701 fps=449 q=-0.0 size=N/A time=00:00:29.23 bitrate=N/A speed=18.7x    frame=  911 fps=440 q=-0.0 size=N/A time=00:00:37.99 bitrate=N/A speed=18.4x    frame= 1152 fps=445 q=-0.0 size=N/A time=00:00:48.04 bitrate=N/A speed=18.6x    frame= 1400 fps=452 q=-0.0 size=N/A time=00:00:58.39 bitrate=N/A speed=18.9x    frame= 1635 fps=452 q=-0.0 size=N/A time=00:01:08.19 bitrate=N/A speed=18.8x    frame= 1868 fps=451 q=-0.0 size=N/A time=00:01:17.91 bitrate=N/A speed=18.8x    frame= 2037 fps=438 q=-0.0 size=N/A time=00:01:24.95 bitrate=N/A speed=18.3x    frame= 2228 fps=432 q=-0.0 size=N/A time=00:01:32.92 bitrate=N/A speed=  18x    frame= 2494 fps=439 q=-0.0 size=N/A time=00:01:44.02 bitrate=N/A speed=18.3x    frame= 2749 fps=444 q=-0.0 size=N/A time=00:01:54.65 bitrate=N/A speed=18.5x    frame= 3005 fps=448 q=-0.0 size=N/A time=00:02:05.33 bitrate=N/A speed=18.7x    frame= 3279 fps=453 q=-0.0 size=N/A time=00:02:16.76 bitrate=N/A speed=18.9x    frame= 3542 fps=458 q=-0.0 size=N/A time=00:02:27.73 bitrate=N/A speed=19.1x    frame= 3778 fps=457 q=-0.0 size=N/A time=00:02:37.57 bitrate=N/A speed=19.1x    frame= 3983 fps=454 q=-0.0 size=N/A time=00:02:46.12 bitrate=N/A speed=18.9x    frame= 4222 fps=455 q=-0.0 size=N/A time=00:02:56.09 bitrate=N/A speed=  19x    frame= 4473 fps=456 q=-0.0 size=N/A time=00:03:06.56 bitrate=N/A speed=  19x    frame= 4693 fps=455 q=-0.0 size=N/A time=00:03:15.73 bitrate=N/A speed=  19x    frame= 4906 fps=453 q=-0.0 size=N/A time=00:03:24.62 bitrate=N/A speed=18.9x    frame= 5182 fps=456 q=-0.0 size=N/A time=00:03:36.13 bitrate=N/A speed=  19x    frame= 5435 fps=458 q=-0.0 size=N/A time=00:03:46.68 bitrate=N/A speed=19.1x    frame= 5688 fps=459 q=-0.0 size=N/A time=00:03:57.23 bitrate=N/A speed=19.2x    frame= 5939 fps=460 q=-0.0 size=N/A time=00:04:07.70 bitrate=N/A speed=19.2x    frame= 6189 fps=461 q=-0.0 size=N/A time=00:04:18.13 bitrate=N/A speed=19.2x    frame= 6409 fps=460 q=-0.0 size=N/A time=00:04:27.30 bitrate=N/A speed=19.2x    frame= 6649 fps=460 q=-0.0 size=N/A time=00:04:37.31 bitrate=N/A speed=19.2x    frame= 6889 fps=460 q=-0.0 size=N/A time=00:04:47.32 bitrate=N/A speed=19.2x    frame= 7152 fps=462 q=-0.0 size=N/A time=00:04:58.29 bitrate=N/A speed=19.3x    frame= 7418 fps=464 q=-0.0 size=N/A time=00:05:09.39 bitrate=N/A speed=19.3x    frame= 7684 fps=466 q=-0.0 size=N/A time=00:05:20.48 bitrate=N/A speed=19.4x    frame= 7936 fps=466 q=-0.0 size=N/A time=00:05:30.99 bitrate=N/A speed=19.4x    frame= 8151 fps=465 q=-0.0 size=N/A time=00:05:39.96 bitrate=N/A speed=19.4x    frame= 8400 fps=465 q=-0.0 size=N/A time=00:05:50.35 bitrate=N/A speed=19.4x    frame= 8654 fps=466 q=-0.0 size=N/A time=00:06:00.94 bitrate=N/A speed=19.4x    frame= 8903 fps=467 q=-0.0 size=N/A time=00:06:11.32 bitrate=N/A speed=19.5x    frame= 9167 fps=468 q=-0.0 size=N/A time=00:06:22.34 bitrate=N/A speed=19.5x    frame= 9437 fps=469 q=-0.0 size=N/A time=00:06:33.60 bitrate=N/A speed=19.6x    frame= 9702 fps=470 q=-0.0 size=N/A time=00:06:44.65 bitrate=N/A speed=19.6x    frame= 9951 fps=471 q=-0.0 size=N/A time=00:06:55.03 bitrate=N/A speed=19.6x    frame=10188 fps=470 q=-0.0 size=N/A time=00:07:04.92 bitrate=N/A speed=19.6x    frame=10384 fps=468 q=-0.0 size=N/A time=00:07:13.09 bitrate=N/A speed=19.5x    frame=10572 fps=466 q=-0.0 size=N/A time=00:07:20.94 bitrate=N/A speed=19.4x    frame=10820 fps=466 q=-0.0 size=N/A time=00:07:31.28 bitrate=N/A speed=19.4x    frame=11073 fps=467 q=-0.0 size=N/A time=00:07:41.83 bitrate=N/A speed=19.5x    frame=11334 fps=468 q=-0.0 size=N/A time=00:07:52.72 bitrate=N/A speed=19.5x    frame=11599 fps=468 q=-0.0 size=N/A time=00:08:03.77 bitrate=N/A speed=19.5x    frame=11782 fps=466 q=-0.0 size=N/A time=00:08:11.40 bitrate=N/A speed=19.4x    frame=12043 fps=467 q=-0.0 size=N/A time=00:08:22.29 bitrate=N/A speed=19.5x    frame=12312 fps=468 q=-0.0 size=N/A time=00:08:33.51 bitrate=N/A speed=19.5x    frame=12571 fps=469 q=-0.0 size=N/A time=00:08:44.31 bitrate=N/A speed=19.6x    frame=12832 fps=469 q=-0.0 size=N/A time=00:08:55.20 bitrate=N/A speed=19.6x    frame=13097 fps=470 q=-0.0 size=N/A time=00:09:06.25 bitrate=N/A speed=19.6x    frame=13369 fps=471 q=-0.0 size=N/A time=00:09:17.59 bitrate=N/A speed=19.7x    frame=13635 fps=472 q=-0.0 size=N/A time=00:09:28.69 bitrate=N/A speed=19.7x    frame=13861 fps=471 q=-0.0 size=N/A time=00:09:38.11 bitrate=N/A speed=19.7x    frame=14102 fps=471 q=-0.0 size=N/A time=00:09:48.17 bitrate=N/A speed=19.7x    frame=14374 fps=472 q=-0.0 size=N/A time=00:09:59.51 bitrate=N/A speed=19.7x    frame=14615 fps=472 q=-0.0 size=N/A time=00:10:09.56 bitrate=N/A speed=19.7x    frame=14878 fps=473 q=-0.0 size=N/A time=00:10:20.53 bitrate=N/A speed=19.7x    frame=15139 fps=473 q=-0.0 size=N/A time=00:10:31.42 bitrate=N/A speed=19.7x    frame=15387 fps=473 q=-0.0 size=N/A time=00:10:41.76 bitrate=N/A speed=19.7x    frame=15640 fps=474 q=-0.0 size=N/A time=00:10:52.31 bitrate=N/A speed=19.8x    frame=15883 fps=474 q=-0.0 size=N/A time=00:11:02.45 bitrate=N/A speed=19.8x    frame=16155 fps=475 q=-0.0 size=N/A time=00:11:13.79 bitrate=N/A speed=19.8x    frame=16376 fps=474 q=-0.0 size=N/A time=00:11:23.01 bitrate=N/A speed=19.8x    frame=16624 fps=474 q=-0.0 size=N/A time=00:11:33.35 bitrate=N/A speed=19.8x    frame=16868 fps=474 q=-0.0 size=N/A time=00:11:43.53 bitrate=N/A speed=19.8x    frame=17130 fps=474 q=-0.0 size=N/A time=00:11:54.46 bitrate=N/A speed=19.8x    frame=17375 fps=474 q=-0.0 size=N/A time=00:12:04.68 bitrate=N/A speed=19.8x    frame=17641 fps=475 q=-0.0 size=N/A time=00:12:15.77 bitrate=N/A speed=19.8x    frame=17891 fps=475 q=-0.0 size=N/A time=00:12:26.20 bitrate=N/A speed=19.8x    frame=18147 fps=475 q=-0.0 size=N/A time=00:12:36.92 bitrate=N/A speed=19.8x    frame=18418 fps=476 q=-0.0 size=N/A time=00:12:48.22 bitrate=N/A speed=19.9x    frame=18656 fps=476 q=-0.0 size=N/A time=00:12:58.11 bitrate=N/A speed=19.8x    frame=18870 fps=475 q=-0.0 size=N/A time=00:13:07.03 bitrate=N/A speed=19.8x    frame=19057 fps=474 q=-0.0 size=N/A time=00:13:14.83 bitrate=N/A speed=19.8x    frame=19304 fps=474 q=-0.0 size=N/A time=00:13:25.13 bitrate=N/A speed=19.8x    frame=19558 fps=474 q=-0.0 size=N/A time=00:13:35.73 bitrate=N/A speed=19.8x    frame=19840 fps=475 q=-0.0 size=N/A time=00:13:47.49 bitrate=N/A speed=19.8x    frame=20101 fps=475 q=-0.0 size=N/A time=00:13:58.37 bitrate=N/A speed=19.8x    frame=20379 fps=476 q=-0.0 size=N/A time=00:14:09.97 bitrate=N/A speed=19.8x    frame=20614 fps=476 q=-0.0 size=N/A time=00:14:19.77 bitrate=N/A speed=19.8x    frame=20860 fps=476 q=-0.0 size=N/A time=00:14:30.03 bitrate=N/A speed=19.8x    frame=21084 fps=475 q=-0.0 size=N/A time=00:14:39.37 bitrate=N/A speed=19.8x    frame=21272 fps=474 q=-0.0 size=N/A time=00:14:47.21 bitrate=N/A speed=19.8x    frame=21463 fps=473 q=-0.0 size=N/A time=00:14:55.18 bitrate=N/A speed=19.7x    frame=21667 fps=472 q=-0.0 size=N/A time=00:15:03.69 bitrate=N/A speed=19.7x    frame=21922 fps=472 q=-0.0 size=N/A time=00:15:14.33 bitrate=N/A speed=19.7x    frame=22172 fps=472 q=-0.0 size=N/A time=00:15:24.75 bitrate=N/A speed=19.7x    frame=22441 fps=473 q=-0.0 size=N/A time=00:15:35.97 bitrate=N/A speed=19.7x    frame=22710 fps=473 q=-0.0 size=N/A time=00:15:47.19 bitrate=N/A speed=19.7x    frame=22872 fps=471 q=-0.0 size=N/A time=00:15:53.95 bitrate=N/A speed=19.7x    frame=23095 fps=471 q=-0.0 size=N/A time=00:16:03.25 bitrate=N/A speed=19.6x    frame=23309 fps=470 q=-0.0 size=N/A time=00:16:12.17 bitrate=N/A speed=19.6x    frame=23544 fps=470 q=-0.0 size=N/A time=00:16:21.98 bitrate=N/A speed=19.6x    frame=23791 fps=470 q=-0.0 size=N/A time=00:16:32.28 bitrate=N/A speed=19.6x    frame=24042 fps=471 q=-0.0 size=N/A time=00:16:42.75 bitrate=N/A speed=19.6x    frame=24276 fps=470 q=-0.0 size=N/A time=00:16:52.51 bitrate=N/A speed=19.6x    frame=24511 fps=470 q=-0.0 size=N/A time=00:17:02.31 bitrate=N/A speed=19.6x    frame=24748 fps=470 q=-0.0 size=N/A time=00:17:12.19 bitrate=N/A speed=19.6x    frame=24936 fps=469 q=-0.0 size=N/A time=00:17:20.03 bitrate=N/A speed=19.6x    frame=25129 fps=468 q=-0.0 size=N/A time=00:17:28.08 bitrate=N/A speed=19.5x    frame=25328 fps=467 q=-0.0 size=N/A time=00:17:36.38 bitrate=N/A speed=19.5x    frame=25571 fps=467 q=-0.0 size=N/A time=00:17:46.52 bitrate=N/A speed=19.5x    frame=25817 fps=468 q=-0.0 size=N/A time=00:17:56.78 bitrate=N/A speed=19.5x    frame=26074 fps=468 q=-0.0 size=N/A time=00:18:07.50 bitrate=N/A speed=19.5x    frame=26307 fps=468 q=-0.0 size=N/A time=00:18:17.22 bitrate=N/A speed=19.5x    frame=26545 fps=468 q=-0.0 size=N/A time=00:18:27.14 bitrate=N/A speed=19.5x    frame=26734 fps=467 q=-0.0 size=N/A time=00:18:35.03 bitrate=N/A speed=19.5x    frame=26936 fps=466 q=-0.0 size=N/A time=00:18:43.45 bitrate=N/A speed=19.4x    frame=27182 fps=466 q=-0.0 size=N/A time=00:18:53.71 bitrate=N/A speed=19.4x    frame=27460 fps=467 q=-0.0 size=N/A time=00:19:05.31 bitrate=N/A speed=19.5x    frame=27714 fps=467 q=-0.0 size=N/A time=00:19:15.90 bitrate=N/A speed=19.5x    frame=27947 fps=467 q=-0.0 size=N/A time=00:19:25.62 bitrate=N/A speed=19.5x    frame=28201 fps=467 q=-0.0 size=N/A time=00:19:36.21 bitrate=N/A speed=19.5x    frame=28471 fps=468 q=-0.0 size=N/A time=00:19:47.47 bitrate=N/A speed=19.5x    frame=28731 fps=468 q=-0.0 size=N/A time=00:19:58.32 bitrate=N/A speed=19.5x    frame=28992 fps=468 q=-0.0 size=N/A time=00:20:09.20 bitrate=N/A speed=19.5x    frame=29222 fps=468 q=-0.0 size=N/A time=00:20:18.80 bitrate=N/A speed=19.5x    frame=29463 fps=468 q=-0.0 size=N/A time=00:20:28.85 bitrate=N/A speed=19.5x    frame=29754 fps=469 q=-0.0 size=N/A time=00:20:40.98 bitrate=N/A speed=19.6x    frame=30030 fps=469 q=-0.0 size=N/A time=00:20:52.50 bitrate=N/A speed=19.6x    frame=30306 fps=470 q=-0.0 size=N/A time=00:21:04.01 bitrate=N/A speed=19.6x    frame=30573 fps=470 q=-0.0 size=N/A time=00:21:15.14 bitrate=N/A speed=19.6x    frame=30830 fps=471 q=-0.0 size=N/A time=00:21:25.86 bitrate=N/A speed=19.6x    frame=31099 fps=471 q=-0.0 size=N/A time=00:21:37.08 bitrate=N/A speed=19.6x    frame=31368 fps=471 q=-0.0 size=N/A time=00:21:48.30 bitrate=N/A speed=19.7x    frame=31635 fps=472 q=-0.0 size=N/A time=00:21:59.44 bitrate=N/A speed=19.7x    frame=31916 fps=472 q=-0.0 size=N/A time=00:22:11.16 bitrate=N/A speed=19.7x    frame=32185 fps=473 q=-0.0 size=N/A time=00:22:22.38 bitrate=N/A speed=19.7x    frame=32469 fps=473 q=-0.0 size=N/A time=00:22:34.22 bitrate=N/A speed=19.7x    frame=32744 fps=474 q=-0.0 size=N/A time=00:22:45.69 bitrate=N/A speed=19.8x    frame=33019 fps=474 q=-0.0 size=N/A time=00:22:57.16 bitrate=N/A speed=19.8x    frame=33289 fps=474 q=-0.0 size=N/A time=00:23:08.42 bitrate=N/A speed=19.8x    frame=33570 fps=475 q=-0.0 size=N/A time=00:23:20.14 bitrate=N/A speed=19.8x    frame=33856 fps=475 q=-0.0 size=N/A time=00:23:32.07 bitrate=N/A speed=19.8x    frame=34122 fps=476 q=-0.0 size=N/A time=00:23:43.17 bitrate=N/A speed=19.8x    frame=34404 fps=476 q=-0.0 size=N/A time=00:23:54.93 bitrate=N/A speed=19.9x    frame=34682 fps=477 q=-0.0 size=N/A time=00:24:06.52 bitrate=N/A speed=19.9x    frame=34954 fps=477 q=-0.0 size=N/A time=00:24:17.87 bitrate=N/A speed=19.9x    frame=35166 fps=477 q=-0.0 size=N/A time=00:24:26.71 bitrate=N/A speed=19.9x    frame=35415 fps=477 q=-0.0 size=N/A time=00:24:37.10 bitrate=N/A speed=19.9x    frame=35633 fps=476 q=-0.0 size=N/A time=00:24:46.19 bitrate=N/A speed=19.9x    [Parsed_ssim_10 @ 000001a66d4fb700] SSIM Y:0.994559 (22.643397) U:0.993741 (22.034873) V:0.993131 (21.630872) All:0.994185 (22.354317)
[out#0/null @ 000001a66d4d1340] video:15397KiB audio:280252KiB subtitle:0KiB other streams:0KiB global headers:0KiB muxing overhead: unknown
frame=35832 fps=477 q=-0.0 Lsize=N/A time=00:24:54.49 bitrate=N/A speed=19.9x    
